<?xml version="1.0" encoding="UTF-8" ?>
<!DOCTYPE svg PUBLIC "-//W3C//DTD SVG 1.1//EN" "http://www.w3.org/Graphics/SVG/1.1/DTD/svg11.dtd">
<svg width="334pt" height="140pt" viewBox="0 0 334 140" version="1.1" xmlns="http://www.w3.org/2000/svg">
<path fill="#ffffff" d=" M 0.00 0.00 L 334.00 0.00 L 334.00 140.00 L 0.00 140.00 L 0.00 0.00 Z" />
<path fill="#414141" d=" M 111.82 4.05 C 116.80 4.02 121.79 4.01 126.78 4.07 C 126.73 26.39 126.78 48.72 126.75 71.04 C 126.71 74.29 127.15 77.98 129.83 80.18 C 133.03 82.93 137.54 82.52 141.47 82.62 C 141.45 87.17 141.47 91.72 141.44 96.27 C 134.86 96.96 127.74 96.73 122.04 92.97 C 114.97 88.64 111.69 80.06 111.81 72.03 C 111.80 49.37 111.80 26.71 111.82 4.05 Z" />
<path fill="#414141" d=" M 142.81 4.05 C 147.80 4.02 152.78 4.01 157.77 4.06 C 157.71 26.39 157.77 48.72 157.74 71.05 C 157.74 74.27 158.21 77.93 160.82 80.15 C 164.06 82.95 168.64 82.53 172.63 82.60 C 172.53 87.14 172.56 91.67 172.59 96.21 C 165.74 97.05 158.27 96.68 152.46 92.56 C 145.77 88.10 142.78 79.83 142.81 72.05 C 142.80 49.38 142.79 26.71 142.81 4.05 Z" />
<path fill="#414141" d=" M 23.18 9.17 C 28.94 4.39 36.82 3.92 43.95 4.76 C 43.90 9.24 43.88 13.71 43.97 18.19 C 40.28 18.27 36.04 17.44 32.93 19.96 C 29.77 22.68 29.58 27.21 29.29 31.07 C 36.34 31.17 43.39 31.09 50.44 31.12 C 50.45 33.75 50.40 36.39 50.35 39.02 C 55.12 34.80 60.78 31.43 67.10 30.25 C 78.19 27.81 90.34 31.63 98.13 39.87 C 103.09 44.79 105.98 51.35 107.62 58.06 C 91.68 64.71 75.58 70.98 59.67 77.72 C 64.75 82.49 71.88 85.02 78.81 83.59 C 84.90 82.85 89.74 78.41 92.56 73.18 C 97.72 73.05 102.90 73.06 108.07 73.16 C 105.58 79.97 102.01 86.67 96.08 91.09 C 81.54 102.09 58.39 99.46 47.15 84.90 C 38.09 73.86 37.55 57.21 45.22 45.27 C 39.92 45.25 34.63 45.25 29.34 45.29 C 29.46 62.32 29.37 79.34 29.39 96.37 C 24.39 96.40 19.38 96.49 14.38 96.26 C 14.52 79.26 14.45 62.26 14.42 45.26 C 11.29 45.27 8.16 45.26 5.03 45.24 C 5.01 40.54 5.01 35.84 5.02 31.14 C 8.15 31.13 11.27 31.11 14.39 31.04 C 14.47 23.06 16.54 14.27 23.18 9.17 Z" />
<path fill="#414141" d=" M 197.39 30.54 C 212.28 26.56 229.24 34.11 236.01 47.99 C 243.56 62.31 239.51 81.74 226.23 91.25 C 212.48 101.78 190.86 99.62 179.75 86.22 C 168.64 73.82 168.87 53.31 180.06 41.03 C 184.59 35.88 190.72 32.14 197.39 30.54 Z" />
<path fill="#414141" d=" M 236.61 31.11 C 241.89 31.13 247.18 31.02 252.46 31.22 C 255.62 42.71 259.26 54.07 262.45 65.55 C 262.91 67.25 263.48 68.93 264.29 70.50 C 268.15 57.36 271.96 44.21 275.95 31.11 C 280.67 31.11 285.39 31.12 290.12 31.10 C 294.26 44.29 297.88 57.65 301.99 70.85 C 305.86 57.65 309.76 44.45 313.54 31.22 C 318.77 31.04 324.01 31.08 329.24 31.17 C 322.75 52.98 315.82 74.66 309.07 96.39 C 304.30 96.40 299.53 96.39 294.77 96.41 C 290.68 82.99 286.96 69.46 282.96 56.01 C 278.81 69.41 275.19 82.98 271.09 96.40 C 266.37 96.40 261.65 96.40 256.92 96.39 C 250.05 74.66 243.33 52.89 236.61 31.11 Z" />
<path fill="#ffffff" d=" M 59.51 50.50 C 64.01 44.95 71.82 42.02 78.77 44.17 C 82.74 45.26 85.97 47.97 88.74 50.90 C 77.42 55.50 66.13 60.18 54.75 64.63 C 54.93 59.59 56.14 54.39 59.51 50.50 Z" />
<path fill="#ffffff" d=" M 201.31 44.10 C 206.32 42.82 211.84 43.87 216.05 46.86 C 222.55 51.36 225.84 59.83 224.41 67.56 C 223.19 74.85 217.59 81.31 210.39 83.20 C 205.80 84.32 200.73 83.87 196.63 81.41 C 190.16 77.82 186.30 70.33 186.68 62.99 C 186.93 54.48 192.89 46.17 201.31 44.10 Z" />
<path fill="#414141" d=" M 183.37 110.35 C 189.58 108.42 196.49 112.96 197.77 119.21 C 199.83 126.28 194.59 134.91 186.91 135.01 C 180.30 135.61 174.43 129.49 174.51 123.01 C 174.10 117.43 177.90 111.78 183.37 110.35 Z" />
<path fill="#414141" d=" M 251.50 110.65 C 256.77 108.53 263.22 111.21 265.73 116.24 C 268.75 121.75 267.19 129.37 261.97 132.99 C 257.00 136.64 249.30 135.24 245.92 130.07 C 241.16 123.74 243.87 113.30 251.50 110.65 Z" />
<path fill="#414141" d=" M 307.03 118.76 C 304.99 112.96 311.81 108.71 316.91 110.08 C 320.89 110.33 323.48 113.85 323.84 117.62 C 320.26 118.15 319.97 113.37 316.82 112.90 C 314.61 112.50 311.86 112.72 310.37 114.61 C 309.04 116.10 309.62 118.81 311.57 119.46 C 314.92 120.93 318.86 120.86 321.96 122.96 C 325.79 125.77 324.52 132.52 320.16 134.12 C 316.56 135.47 312.00 135.58 308.84 133.12 C 306.94 131.70 306.39 129.29 305.67 127.17 C 306.38 127.13 307.81 127.04 308.53 127.00 C 309.59 129.38 311.05 132.15 314.05 132.23 C 317.58 133.09 322.68 130.49 321.00 126.29 C 317.46 122.06 309.37 124.59 307.03 118.76 Z" />
<path fill="#414141" d=" M 142.81 110.57 C 147.68 110.82 152.84 109.68 157.50 111.46 C 162.17 113.80 161.96 120.36 158.49 123.68 C 160.86 126.86 160.43 130.90 160.44 134.62 C 159.72 134.63 158.28 134.63 157.55 134.63 C 157.07 131.73 158.87 127.14 155.55 125.52 C 152.32 124.90 149.01 125.27 145.75 125.20 C 145.75 128.35 145.75 131.51 145.78 134.67 C 145.05 134.67 143.58 134.67 142.85 134.67 C 142.74 126.64 142.81 118.60 142.81 110.57 Z" />
<path fill="#414141" d=" M 212.62 110.57 C 217.23 110.81 222.11 109.74 226.54 111.34 C 230.63 113.32 230.47 118.94 227.53 121.86 C 231.72 124.94 231.28 132.18 226.21 134.06 C 221.83 135.25 217.18 134.40 212.70 134.65 C 212.55 126.63 212.67 118.60 212.62 110.57 Z" />
<path fill="#414141" d=" M 276.71 110.56 C 282.83 110.56 288.96 110.39 295.08 110.67 C 294.97 111.29 294.76 112.52 294.66 113.14 C 292.18 113.53 289.66 113.39 287.16 113.44 C 287.26 120.52 287.25 127.60 287.18 134.68 C 286.45 134.68 284.98 134.67 284.24 134.67 C 284.29 127.58 284.31 120.49 284.24 113.41 C 281.73 113.39 279.22 113.38 276.72 113.36 C 276.72 112.66 276.71 111.26 276.71 110.56 Z" />
<path fill="#ffffff" d=" M 145.78 113.39 C 149.00 113.45 152.27 113.12 155.47 113.66 C 159.02 114.74 159.22 120.63 155.65 121.86 C 152.45 122.80 149.03 122.22 145.74 122.30 C 145.74 119.33 145.74 116.36 145.78 113.39 Z" />
<path fill="#ffffff" d=" M 183.39 113.30 C 189.44 110.75 195.99 116.80 195.25 122.98 C 195.39 129.13 188.36 134.50 182.64 131.40 C 175.35 128.04 175.79 116.00 183.39 113.30 Z" />
<path fill="#ffffff" d=" M 215.47 113.41 C 218.49 113.43 221.53 113.15 224.53 113.61 C 227.70 114.35 227.58 119.58 224.51 120.38 C 221.54 120.95 218.49 120.63 215.48 120.67 C 215.50 118.25 215.49 115.83 215.47 113.41 Z" />
<path fill="#ffffff" d=" M 252.39 113.34 C 258.45 110.69 265.12 116.78 264.33 123.00 C 264.49 129.17 257.35 134.54 251.65 131.36 C 244.47 127.98 244.89 116.06 252.39 113.34 Z" />
<path fill="#ffffff" d=" M 215.48 123.48 C 218.60 123.50 221.76 123.15 224.84 123.75 C 228.61 124.52 228.32 130.98 224.59 131.56 C 221.59 131.99 218.55 131.74 215.54 131.79 C 215.51 129.02 215.50 126.25 215.48 123.48 Z" />
</svg>
