<?xml version="1.0" encoding="UTF-8" ?>
<!DOCTYPE svg PUBLIC "-//W3C//DTD SVG 1.1//EN" "http://www.w3.org/Graphics/SVG/1.1/DTD/svg11.dtd">
<svg width="200pt" height="200pt" viewBox="0 0 200 200" version="1.1" xmlns="http://www.w3.org/2000/svg">
<path fill="#1d1d1d" d=" M 0.00 0.00 L 200.00 0.00 L 200.00 200.00 L 0.00 200.00 L 0.00 0.00 Z" />
<path fill="#ffffff" d=" M 90.40 36.51 C 120.95 31.01 152.62 51.23 161.48 80.69 C 175.55 119.33 143.10 165.25 102.01 164.06 C 67.27 167.23 34.83 135.64 35.94 101.01 C 34.09 69.84 59.58 40.27 90.40 36.51 Z" />
<path fill="#1d1d1d" d=" M 96.40 59.50 C 113.36 57.35 130.41 68.38 137.38 83.66 C 142.12 95.83 141.84 110.32 134.40 121.37 C 125.07 137.43 103.21 145.44 85.90 138.13 C 64.89 131.36 53.33 105.25 62.16 85.14 C 67.29 70.96 81.44 60.70 96.40 59.50 Z" />
<path fill="#ffffff" d=" M 96.34 89.26 C 103.29 87.25 112.54 93.14 111.04 101.02 C 111.86 109.94 99.84 115.65 93.02 110.00 C 85.35 104.80 87.66 92.21 96.34 89.26 Z" />
</svg>
